# xmcd
#
# Track frame offsets: 
#        150
#        38491
#        72318
#        102729
#        137609
#        171519
#        191416
#        222692
#        255897
#
# Disc length: 3633 seconds
#
# Revision: 0
# Processed by: cddbd v1.4PL0 Copyright (c) Steve Scherf et al.
# Submitted via: ExactAudioCopy v0.90b4
#
DISCID=840e2f09
DTITLE=Радиотранс - Палево
DYEAR=2002
DGENRE=Trance
TTITLE0=Оригинальная Radiotrance версия
TTITLE1=Космонавтика ремикс
TTITLE2=DJ Бармалей и DJ Ice ремикс
TTITLE3=DJ Nikk and Mario remix
TTITLE4=Arrival remix
TTITLE5=Andy Dragon remix
TTITLE6=Dr. Bass remix
TTITLE7=DJ версия
TTITLE8=Радио версия
EXTD=
EXTT0=
EXTT1=
EXTT2=
EXTT3=
EXTT4=
EXTT5=
EXTT6=
EXTT7=
EXTT8=
PLAYORDER=
